<svg width="121" height="75" viewBox="0 0 121 75" fill="none" xmlns="http://www.w3.org/2000/svg">
<path d="M36.8372 23.7558C36.8372 32.415 30.3089 23.7558 22.2558 23.7558C14.2028 23.7558 7.67444 32.415 7.67444 23.7558C7.67444 15.0966 14.2028 8.0769 22.2558 8.0769C30.3089 8.0769 36.8372 15.0966 36.8372 23.7558Z" fill="#979FBA"/>
<rect x="3.5813" y="18.5295" width="37.3488" height="5.22629" fill="#979FBA"/>
<path d="M20.9768 0H23.0233V8.07699H20.9768V0Z" fill="#979FBA"/>
<path d="M17.907 4.27612V2.37565L26.093 2.37565V4.27612L17.907 4.27612Z" fill="#979FBA"/>
<rect x="3.5813" y="54.1633" width="37.3488" height="6.65164" fill="#979FBA"/>
<rect y="60.8151" width="44" height="6.65164" fill="#979FBA"/>
<rect x="7.67444" y="23.7559" width="5.62791" height="30.4075" fill="#979FBA"/>
<rect x="31.2092" y="23.7559" width="5.62791" height="30.4075" fill="#979FBA"/>
<path d="M28.9106 45.5978C19.8206 65.4323 21.3316 64.4272 19.8206 63.5483C19.8206 63.5483 22.8439 59.3591 16.1845 45.5978C14.3528 41.8127 19.0334 28.2264 22.5476 28.2264C26.0618 28.2264 29.8525 43.5428 28.9106 45.5978Z" fill="#979FBA"/>
<ellipse cx="22" cy="29.4717" rx="2.07547" ry="4.56604" fill="#979FBA"/>
<path d="M49.5 57V24.2H54.75L60.95 41.75C61.35 42.85 61.7167 43.95 62.05 45.05C62.4167 46.15 62.7833 47.3167 63.15 48.55H63.35C63.7167 47.3167 64.0667 46.15 64.4 45.05C64.7333 43.95 65.0833 42.85 65.45 41.75L71.65 24.2H76.85V57H72.95V38.95C72.95 37.9833 72.9833 36.9 73.05 35.7C73.1167 34.5 73.1833 33.3167 73.25 32.15C73.35 30.95 73.45 29.8667 73.55 28.9H73.35L70.8 36.8L64.65 53.75H61.6L55.45 36.8L52.9 28.9H52.7C52.8 29.8667 52.8833 30.95 52.95 32.15C53.05 33.3167 53.1333 34.5 53.2 35.7C53.2667 36.9 53.3 37.9833 53.3 38.95V57H49.5ZM85.8281 57V24.2H89.9781V40.65H90.1281L103.778 24.2H108.478L98.2281 36.7L110.078 57H105.428L95.6281 39.95L89.9781 46.6V57H85.8281Z" fill="#979FBA"/>
</svg>
