<svg width="173" height="266" viewBox="0 0 173 266" fill="none" xmlns="http://www.w3.org/2000/svg">
<path d="M144.837 93.4036C144.837 127.45 119.169 93.4036 87.5057 93.4036C55.8425 93.4036 30.1743 127.45 30.1743 93.4036C30.1743 59.3572 55.8425 31.7571 87.5057 31.7571C119.169 31.7571 144.837 59.3572 144.837 93.4036Z" fill="#979FBA"/>
<rect x="14.0813" y="72.8548" width="146.849" height="20.5488" fill="#979FBA"/>
<path d="M82.4771 0H90.5236V31.7573H82.4771V0Z" fill="#979FBA"/>
<path d="M70.4067 16.8129V9.34063L102.593 9.34063V16.8129L70.4067 16.8129Z" fill="#979FBA"/>
<rect x="14.0813" y="212.961" width="146.849" height="26.153" fill="#979FBA"/>
<rect y="239.114" width="173" height="26.153" fill="#979FBA"/>
<rect x="30.1743" y="93.4039" width="22.1279" height="119.557" fill="#979FBA"/>
<rect x="122.709" y="93.4039" width="22.1279" height="119.557" fill="#979FBA"/>
<path d="M113.671 179.282C77.9308 257.268 83.8721 253.316 77.9308 249.86C77.9308 249.86 89.8179 233.389 63.6346 179.282C56.4327 164.4 74.8357 110.981 88.653 110.981C102.47 110.981 117.374 171.202 113.671 179.282Z" fill="#979FBA"/>
<ellipse cx="86.4999" cy="115.877" rx="8.16038" ry="17.9528" fill="#979FBA"/>
</svg>
